<svg xmlns="http://www.w3.org/2000/svg" xmlns:xlink="http://www.w3.org/1999/xlink" width="608" height="965" viewBox="0 0 608 965"><defs><path id="it4ec" d="M1287.19-78.35a5.27 5.27 0 0 1-2.1 2.32L1009.87 83.1a5.61 5.61 0 0 1-8.06-2.23c-1.69-2.6-.67-6.03 2.13-7.87L1279.18-86.2c2.83-1.57 6.38-.82 8 2.17 1.2 1.75.97 3.98 0 5.68"/><path id="it4ed" d="M1425 626a14 14 0 1 1 28 0 14 14 0 0 1-28 0z"/><path id="it4ee" d="M1303 121a5 5 0 1 1 10 0 5 5 0 0 1-10 0z"/><path id="it4ef" d="M1265 149a9 9 0 1 1 18 0 9 9 0 0 1-18 0z"/><path id="it4eg" d="M1602.66 878a6.72 6.72 0 0 1-3.29-.95l-301.1-174.38c-3.13-1.42-4.21-5.27-2.37-8.57 1.84-2.9 5.7-4.01 8.66-2.27l301.2 173.98a6.39 6.39 0 0 1 2.34 8.8 6.24 6.24 0 0 1-5.44 3.39"/><path id="it4eh" d="M1234.46 502.03l52.67 29.47 215.21-123.6-49.3-29.09z"/><path id="it4ea" d="M1232.39 374.89h273.27v158.2h-273.27z"/><path id="it4ej" d="M1287.86 533.1c-.48 0-.96-.13-1.4-.38l-52.6-29.43a2.88 2.88 0 0 1 0-5.02l218.3-123.02c.88-.5 1.97-.49 2.86.03l49.22 29.05a2.88 2.88 0 0 1-.03 4.97L1289.3 532.7c-.44.26-.93.4-1.43.4zm-46.72-32.33l46.7 26.13 209.22-120.13-43.53-25.68z"/><path id="it4ek" d="M1278.43 321.56c-15.9 9.2-28.73 31.45-28.68 49.76l.28 99.46c.05 18.28 12.97 25.67 28.88 16.47l16.8-9.72 21.26-11.58 29.13-17.55 122.05-70.59c15.9-9.2 28.76-31.5 28.7-49.77l-.28-99.46c-.05-18.3-12.99-25.66-28.88-16.46z"/><path id="it4el" d="M1265.99 494.1c-3.25 0-6.26-.77-8.94-2.3-6.36-3.67-9.87-11.13-9.9-21.02l-.28-99.46c-.05-19.18 13.47-42.62 30.12-52.26l189.25-109.44c8.65-5 16.94-5.72 23.33-2.04 6.34 3.65 9.85 11.1 9.88 21l.28 99.46c.05 19.18-13.47 42.62-30.14 52.26l-122.05 70.59-29.1 17.53-21.35 11.64-16.75 9.69c-5 2.9-9.89 4.35-14.35 4.35zm13.88-170.06c-15.07 8.73-27.3 29.93-27.25 47.27l.28 99.46c.03 7.74 2.52 13.44 7.01 16.03 4.53 2.62 10.76 1.88 17.55-2.03l16.82-9.73 21.3-11.62 29.03-17.5 122.1-70.6c15.07-8.72 27.3-29.93 27.26-47.27l-.28-99.47c-.02-7.73-2.51-13.42-7-16.02-4.53-2.6-10.78-1.88-17.58 2.04z"/><path id="it4em" d="M1212.88 349.88l.26 99.43c.05 9.1 3.23 15.46 8.41 18.46l36.87 21.51c-5.15-3-8.37-9.45-8.37-18.5l-.27-99.35v-.13c-.09-18.28 12.7-40.5 28.63-49.7v-.04h.05l189.23-109.42c7.96-4.66 15.26-5.06 20.49-2.06l-36.9-21.42c-5.24-3.1-12.49-2.64-20.45 1.97l-189.28 109.42c-15.88 9.23-28.72 31.5-28.67 49.83"/><path id="it4eb" d="M1210 183.78h281.05v308.37H1210z"/><path id="it4eo" d="M1258.41 492.15c-.49 0-.98-.12-1.44-.39l-36.86-21.5c-6.3-3.65-9.8-11.08-9.84-20.93l-.27-99.45c-.05-19.17 13.46-42.64 30.1-52.32l189.29-109.43c8.67-5.03 16.96-5.72 23.34-1.95l36.89 21.4a2.88 2.88 0 0 1-2.87 5c-4.53-2.6-10.95-1.86-17.61 2.04L1280.1 323.93l-.25.17c-15.08 8.7-27.28 29.86-27.2 47.18l.27 99.48c0 7.62 2.53 13.46 6.94 16.03a2.88 2.88 0 0 1-1.45 5.36m-42.66-142.29l.27 99.43c.04 7.72 2.51 13.4 6.97 15.98l25.46 14.85a32.77 32.77 0 0 1-1.28-9.36l-.26-99.33c-.1-19.17 13.22-42.4 29.74-52.14.18-.14.38-.27.6-.36l188.99-109.3a32.84 32.84 0 0 1 9.06-3.7l-25.48-14.79c-4.54-2.67-10.77-1.97-17.56 1.98l-189.28 109.42c-15.05 8.75-27.27 29.98-27.23 47.32"/><path id="it4ep" d="M1212.88 349.89l.26 99.43c.05 9.1 3.23 15.46 8.41 18.45l36.87 21.52c-5.15-3-8.37-9.46-8.37-18.51l-.27-99.34-.04-.14z"/><path id="it4eq" d="M1258.41 492.16c-.5 0-.99-.12-1.44-.39l-36.87-21.5c-6.3-3.65-9.79-11.09-9.83-20.94l-.27-99.44a2.88 2.88 0 0 1 4.31-2.5l36.87 21.42c.6.36 1.06.92 1.28 1.58.1.3.2.73.2 1.04l.26 99.34c0 7.62 2.53 13.45 6.94 16.03a2.89 2.89 0 0 1-1.45 5.36zm-42.65-137.27l.25 94.42c.04 7.72 2.52 13.4 6.98 15.97l25.47 14.86a32.76 32.76 0 0 1-1.28-9.36l-.26-97.79z"/><path id="it4er" d="M1249.78 371.44v-.14c-.09-18.28 12.7-40.5 28.63-49.69v-.05l-36.86-21.5c-15.88 9.23-28.72 31.5-28.67 49.82z"/><path id="it4es" d="M1249.68 374.28c-.47 0-.93-.12-1.35-.36l-36.9-21.56a2.88 2.88 0 0 1-1.43-2.48c-.05-19.17 13.46-42.65 30.1-52.33.9-.51 2-.51 2.9 0l36.85 21.52a2.88 2.88 0 0 1 1.43 2.49c0 1.02-.55 2.02-1.44 2.53-15.07 8.7-27.27 29.87-27.19 47.19 0 1.03-.54 2.06-1.43 2.58-.48.27-1 .42-1.54.42m-33.9-26.05l31.36 18.31c1.71-16.51 12.36-35 25.83-44.83l-31.39-18.31c-13.95 8.92-25.14 28.36-25.8 44.83"/><path id="it4et" d="M1322.62 349.7v.01l.01 4.73 127.28-73.65-.03-9.42-4.07 2.36-105.3 61.1-17.9 10.19z"/><path id="it4eu" d="M1265.57 377.43l.01 4.68.02 4.74 47.53-28-.02-9.42z"/><path id="it4ev" d="M1438.77 303.48l.03 9.42-125.65 71.65-.01-4.73-.02-4.7z"/><path id="it4ew" d="M1265.57 404.4l.01 4.68.02 4.74 37.36-22.26-.02-9.42z"/><path id="it4ex" d="M1322.62 401.05l.01 4.73 132.43-75.8-.03-9.43-77.79 44.28-36.72 21.33-17.92 10.2z"/><path id="it4ey" d="M1265.57 428.78l.01 4.69.02 4.73 47.53-28-.02-9.41z"/><path id="it4ez" d="M1446.91 349.72l.03 9.42-133.8 76.74v-4.73l-.02-4.69z"/><path id="it4eA" d="M1265.57 455.74l.01 4.69.02 4.73 37.36-22.26-.02-9.42z"/><clipPath id="it4ei"><use xlink:href="#it4ea"/></clipPath><clipPath id="it4en"><use xlink:href="#it4eb"/></clipPath></defs><g><g transform="translate(-1001 87)"><use fill="#43aaff" xlink:href="#it4ec"/></g><g transform="translate(-1001 87)"><use xlink:href="#it4ed"/><use fill="#fff" fill-opacity="0" stroke="#979797" stroke-miterlimit="50" xlink:href="#it4ed"/></g><g transform="translate(-1001 87)"><use xlink:href="#it4ee"/></g><g transform="translate(-1001 87)"><use fill="#ffd400" xlink:href="#it4ef"/></g><g transform="translate(-1001 87)"><use fill="#ffd800" xlink:href="#it4eg"/></g><g transform="translate(-1001 87)"><g><g><use xlink:href="#it4eh"/></g><g><g><g/><g clip-path="url(#it4ei)"><use xlink:href="#it4ej"/></g></g><g><use fill="#ffd400" xlink:href="#it4ek"/></g><g><use xlink:href="#it4el"/></g><g><use fill="#da1e1e" xlink:href="#it4em"/></g><g><g/><g clip-path="url(#it4en)"><use xlink:href="#it4eo"/></g></g><g><use xlink:href="#it4ep"/></g><g><use xlink:href="#it4eq"/></g><g><use fill="#43aaff" xlink:href="#it4er"/></g><g><use xlink:href="#it4es"/></g><g><use xlink:href="#it4et"/></g><g><use xlink:href="#it4eu"/></g><g><use xlink:href="#it4ev"/></g><g><use xlink:href="#it4ew"/></g><g><use xlink:href="#it4ex"/></g><g><use xlink:href="#it4ey"/></g><g><use xlink:href="#it4ez"/></g><g><use xlink:href="#it4eA"/></g></g></g></g></g></svg>