<svg xmlns="http://www.w3.org/2000/svg" xmlns:xlink="http://www.w3.org/1999/xlink" width="455" height="955" viewBox="0 0 455 955"><defs><path id="o9die" d="M240.19 699.65a5.27 5.27 0 0 1-2.1 2.32L-37.13 861.1a5.61 5.61 0 0 1-8.06-2.23c-1.69-2.6-.67-6.03 2.13-7.87L232.18 691.8c2.83-1.57 6.38-.82 8 2.17 1.2 1.75.97 3.98 0 5.68"/><path id="o9dif" d="M80 573a11 11 0 1 1 22 0 11 11 0 0 1-22 0z"/><path id="o9dig" d="M142 531a6 6 0 1 1 12 0 6 6 0 0 1-12 0z"/><path id="o9dih" d="M351 98a14 14 0 1 1 28 0 14 14 0 0 1-28 0z"/><path id="o9dii" d="M71.69 423.63l136.33-75.22-135.15-81.1-143.45 74.4z"/><path id="o9dia" d="M-75 262.19h289.59v167.55H-75z"/><path id="o9dik" d="M72.77 429.74a5.5 5.5 0 0 1-2.73-.72l-142.31-82.1a5.47 5.47 0 0 1 .21-9.56L71.42 262.8c1.69-.88 3.7-.8 5.33.17l135.2 81.28a5.45 5.45 0 0 1-.17 9.44L75.4 429.06c-.81.46-1.73.68-2.63.68zm-130.98-87.29l131.03 75.59 125.4-69.32L73.75 273.9z"/><path id="o9dil" d="M209.13 348.92l136.37-75.37-135.2-81.28-143.48 74.56z"/><path id="o9dim" d="M209.14 354.36a5.5 5.5 0 0 1-2.73-.73L64.1 271.53a5.47 5.47 0 0 1 .21-9.55l143.5-74.56a5.4 5.4 0 0 1 5.32.17l135.2 81.27a5.45 5.45 0 0 1-.17 9.44l-136.37 75.38c-.82.45-1.74.68-2.64.68zm-130.98-87.3l131.04 75.6 125.42-69.32-124.5-74.84z"/><path id="o9din" d="M276.42-26.43l-103.47 60.1-104.14-60.1 103.47-60.1z"/><path id="o9dib" d="M62.51-92.8H282.7V39.96H62.5z"/><path id="o9dip" d="M172.95 39.95a6.31 6.31 0 0 1-3.14-.84L65.66-20.99a6.3 6.3 0 0 1-.01-10.87l103.47-60.1a6.28 6.28 0 0 1 6.3-.02l104.13 60.1a6.28 6.28 0 0 1 .02 10.87L176.1 39.1c-.97.57-2.07.85-3.16.85zm-91.6-66.4l91.59 52.87 90.94-52.84-91.6-52.86z"/><path id="o9diq" d="M276.41-26.43l-1.52 251.1-103.47 60.12 1.52-251.11z"/><path id="o9dir" d="M171.42 291.07a6.28 6.28 0 0 1-6.28-6.32l1.53-251.1a6.26 6.26 0 0 1 3.13-5.4l103.46-60.1a6.26 6.26 0 0 1 9.44 5.46l-1.52 251.1c-.01 2.23-1.2 4.28-3.14 5.4l-103.46 60.11c-.98.57-2.07.85-3.16.85zm7.8-253.76l-1.46 236.52 90.9-52.78 1.43-236.52z"/><path id="o9dis" d="M172.95 33.68l-1.53 251.1-104.14-60.1 1.52-251.1z"/><path id="o9dit" d="M171.42 291.06a6.33 6.33 0 0 1-3.15-.84l-104.15-60.1a6.3 6.3 0 0 1-3.14-5.48l1.53-251.1a6.3 6.3 0 0 1 9.43-5.41l104.15 60.1a6.3 6.3 0 0 1 3.15 5.48l-1.54 251.1a6.29 6.29 0 0 1-6.28 6.25zm-97.85-70l91.62 52.88 1.45-236.65L75.02-15.6z"/><path id="o9diu" d="M140.43 207.03l-103.47 60.1-104.15-60.1 103.47-60.1z"/><path id="o9div" d="M36.95 273.43a6.3 6.3 0 0 1-3.13-.85l-104.16-60.1a6.3 6.3 0 0 1-.01-10.88l103.48-60.1a6.27 6.27 0 0 1 6.3-.02l104.13 60.11a6.28 6.28 0 0 1 0 10.87L40.12 272.57c-.97.57-2.06.86-3.16.86zm-91.61-66.41l91.6 52.86 90.94-52.83-91.59-52.87z"/><path id="o9diw" d="M140.42 207.03l-1.53 129.64-103.47 60.1 1.53-129.63z"/><path id="o9dix" d="M35.43 403.07a6.28 6.28 0 0 1-6.29-6.35l1.54-129.65a6.26 6.26 0 0 1 3.12-5.35l103.47-60.11a6.28 6.28 0 0 1 9.44 5.5l-1.52 129.64a6.26 6.26 0 0 1-3.14 5.36L38.58 402.2c-.97.58-2.06.86-3.15.86zm7.78-132.29L41.85 385.8l90.8-52.75 1.36-115.01z"/><path id="o9diy" d="M36.95 267.14l-1.52 129.64-104.15-60.1 1.53-129.65z"/><path id="o9dic" d="M-75 200.75H43.24v202.31H-75z"/><path id="o9diA" d="M35.42 403.06a6.33 6.33 0 0 1-3.14-.84l-104.14-60.1A6.3 6.3 0 0 1-75 336.6l1.53-129.64a6.28 6.28 0 0 1 9.42-5.37L40.1 261.7a6.3 6.3 0 0 1 3.14 5.52l-1.53 129.64a6.3 6.3 0 0 1-6.29 6.21zm-97.81-70l91.66 52.91 1.35-115.23-91.65-52.9z"/><path id="o9diB" d="M140.43 43.72l-103.47 60.1-104.15-60.1 103.47-60.1z"/><path id="o9diC" d="M36.95 110.11a6.3 6.3 0 0 1-3.13-.84l-104.16-60.1a6.28 6.28 0 0 1-.01-10.88L33.13-21.8a6.28 6.28 0 0 1 6.3-.02l104.13 60.1a6.29 6.29 0 0 1 0 10.88l-103.45 60.1c-.97.58-2.06.86-3.16.86zm-91.61-66.4l91.6 52.86 90.94-52.83L36.3-9.13z"/><path id="o9diD" d="M140.42 43.72l-1.53 129.65-103.47 60.1 1.53-129.64z"/><path id="o9diE" d="M35.43 239.75a6.31 6.31 0 0 1-6.29-6.35l1.54-129.64a6.25 6.25 0 0 1 3.12-5.35L137.27 38.3a6.28 6.28 0 0 1 9.44 5.5l-1.52 129.64a6.26 6.26 0 0 1-3.14 5.36L38.58 238.9c-.97.57-2.06.85-3.15.85zm7.78-132.28l-1.36 115.01 90.8-52.75 1.36-115.01z"/><path id="o9diF" d="M36.95 103.83l-1.52 129.64-104.15-60.11 1.53-129.64z"/><path id="o9did" d="M-75 37.44H43.24v202.31H-75z"/><path id="o9diH" d="M35.42 239.75a6.33 6.33 0 0 1-3.14-.84l-104.14-60.1a6.3 6.3 0 0 1-3.14-5.52l1.53-129.65a6.28 6.28 0 0 1 9.42-5.36L40.1 98.38a6.28 6.28 0 0 1 3.14 5.52l-1.53 129.64a6.3 6.3 0 0 1-6.29 6.21zm-97.81-70l91.66 52.91 1.35-115.23-91.65-52.9z"/><clipPath id="o9dij"><use xlink:href="#o9dia"/></clipPath><clipPath id="o9dio"><use xlink:href="#o9dib"/></clipPath><clipPath id="o9diz"><use xlink:href="#o9dic"/></clipPath><clipPath id="o9diG"><use xlink:href="#o9did"/></clipPath></defs><g><g transform="translate(75 93)"><use fill="#43aaff" xlink:href="#o9die"/></g><g transform="translate(75 93)"><use fill="#da1e1e" xlink:href="#o9dif"/></g><g transform="translate(75 93)"><use xlink:href="#o9dig"/></g><g transform="translate(75 93)"><use fill="#43aaff" xlink:href="#o9dih"/><use fill="#fff" fill-opacity="0" stroke="#979797" stroke-miterlimit="50" xlink:href="#o9dih"/></g><g transform="translate(75 93)"><g><g><use xlink:href="#o9dii"/></g><g><g><g/><g clip-path="url(#o9dij)"><use xlink:href="#o9dik"/></g></g><g><use xlink:href="#o9dil"/></g><g><use xlink:href="#o9dim"/></g><g><use fill="#da1e1e" xlink:href="#o9din"/></g><g><g/><g clip-path="url(#o9dio)"><use xlink:href="#o9dip"/></g></g><g><use fill="#ffd400" xlink:href="#o9diq"/></g><g><use xlink:href="#o9dir"/></g><g><use fill="#43aaff" xlink:href="#o9dis"/></g><g><use xlink:href="#o9dit"/></g><g><use fill="#da1e1e" xlink:href="#o9diu"/></g><g><use xlink:href="#o9div"/></g><g><use fill="#ffd400" xlink:href="#o9diw"/></g><g><use xlink:href="#o9dix"/></g><g><use xlink:href="#o9diy"/></g><g><g/><g clip-path="url(#o9diz)"><use xlink:href="#o9diA"/></g></g><g><use fill="#da1e1e" xlink:href="#o9diB"/></g><g><use xlink:href="#o9diC"/></g><g><use fill="#ffd400" xlink:href="#o9diD"/></g><g><use xlink:href="#o9diE"/></g><g><use fill="#43aaff" xlink:href="#o9diF"/></g><g><g/><g clip-path="url(#o9diG)"><use xlink:href="#o9diH"/></g></g></g></g></g></g></svg>